<svg viewBox="0 0 622.861 209.265" xmlns="http://www.w3.org/2000/svg" xmlns:xlink="http://www.w3.org/1999/xlink" id="uuid-6258a36c-402b-4917-bd99-703b75c6443c" overflow="hidden"><defs><clipPath id="uuid-432c0e83-655d-4c1f-90e0-6cf791e6105c"><rect x="378.887" y="80.7153" width="76.062" height="76.122" stroke-width="0" fill="none"/></clipPath><clipPath id="uuid-db73e876-a8a6-44cb-b942-e8eec6e66f06"><rect x="378.887" y="80.7143" width="76.063" height="76.123" stroke-width="0" fill="none"/></clipPath><clipPath id="uuid-5325481f-b9ca-4902-b568-280b4e436817"><rect x="388.738" y="90.6723" width="56.3583" height="56.208" stroke-width="0" fill="none" transform="matrix(0.468485 -0.883471 0.883471 0.468485 116.663 431.466)"/></clipPath><clipPath id="uuid-5300c5db-df58-4a13-9a6a-1066cd886166"><path d="M285.816 17.5903C279.841 19.5963 262.978 30.9953 255.385 37.7503 255.385 37.7503 255.053 41.0343 258.056 46.7803 260.757 51.9543 263.93 54.1093 263.93 54.1093 273.809 51.7403 292.81 44.4263 297.87 40.6663 302.93 36.9113 306.691 25.6243 304.949 22.2903 304.133 20.7283 301.188 19.1553 297.673 18.1333 295.257 17.4303 292.569 16.9873 290.122 16.9873 288.543 16.9873 287.061 17.1723 285.816 17.5903" stroke-width="0" fill="none"/></clipPath></defs><path d="M268.017 52.3483C268.017 52.3483 269.998 54.2793 266.679 56.1403 263.355 58.0023 260.68 59.5443 261.585 61.3903 262.492 63.2343 281.977 60.9563 273.644 50.9873L268.017 52.3483Z" stroke-width="0" fill="#345589"/><path d="M181.704 113.022C214.916 81.2859 253.751 70.0899 253.751 70.0899L252.484 66.2879C218.835 78.2849 192.092 102.459 181.704 112.793L181.704 113.022Z" stroke-width="0" fill="#F7941E"/><path d="M622.861 196.589C622.861 203.589 616.927 209.265 609.608 209.265L13.2531 209.265C5.935 209.265 0 203.589 0 196.589L0 173.771C0 166.768 5.935 161.092 13.2531 161.092L609.608 161.092C616.927 161.092 622.861 166.768 622.861 173.771L622.861 196.589Z" stroke-width="0" fill="#F7941E"/><path d="M26.9826 151.768 26.9826 86.2375 3.3626 86.2375 3.3626 80.4485C3.3626 78.1325 4.1726 76.1645 5.7946 74.5425 7.4146 72.9215 9.3836 72.1105 11.6986 72.1105L66.8106 72.1105 66.8106 86.2375 43.4226 86.2375 43.4226 151.768 26.9826 151.768Z" stroke-width="0" fill="#345589"/><path d="M153.364 151.768 145.259 151.768C142.944 151.768 141.051 151.038 139.587 149.568 138.117 148.102 137.386 146.21 137.386 143.893L137.386 112.402C137.386 108.699 136.265 105.998 134.028 104.299 131.788 102.602 129.282 101.751 126.503 101.751 123.724 101.751 121.254 102.602 119.093 104.299 116.928 105.998 115.851 108.699 115.851 112.402L115.851 151.768 99.6419 151.768 99.6419 115.645C99.6419 105.147 102.381 98.1255 107.862 94.5725 113.34 91.0225 119.4 89.0955 126.04 88.7845 132.831 88.7845 139.082 90.5605 144.797 94.1085 150.505 97.6625 153.364 104.841 153.364 115.645L153.364 151.768Z" stroke-width="0" fill="#345589"/><path d="M249.657 112.437 267.96 112.437C271.928 112.437 274.867 111.695 276.78 110.208 278.688 108.723 279.648 106.426 279.648 103.315 279.648 100.207 278.688 97.911 276.78 96.421 275.016 94.799 272.369 93.989 268.841 93.989L249.657 93.989 249.657 112.437ZM234.002 151.768 234.002 89.326C234.002 87.299 234.774 85.576 236.316 84.156 237.86 82.738 239.735 82.028 241.94 82.028L270.827 82.028C279.056 82.028 285.159 83.65 289.129 86.894 293.241 90.273 295.303 95.206 295.303 101.693 295.303 106.019 294.271 109.6 292.215 112.437 290.451 115.143 287.657 117.1 283.837 118.317 287.215 119.401 289.57 121.022 290.893 123.182 292.215 125.21 293.022 128.657 293.318 133.522L293.758 141.834 293.758 144.469C293.758 145.418 293.83 146.294 293.98 147.105 294.421 149.538 295.303 151.093 296.626 151.768L279.428 151.768C278.688 150.418 278.248 149.001 278.102 147.512 277.807 145.351 277.661 143.862 277.661 143.051L277.442 135.549C277.145 131.495 276.263 128.59 274.796 126.831 273.176 125.348 270.31 124.602 266.195 124.602L249.657 124.602 249.657 151.768 234.002 151.768Z" stroke-width="0" fill="#39B54A"/><path d="M352.95 93.2304 336.51 93.2304 329.925 123.236 336.235 144.349 345.865 111.846 355.425 141.609 362.437 122.427 352.95 93.2304Z" stroke-width="0" fill="#F7941E"/><path d="M451.882 151.768 451.882 121.897C451.882 115.876 452.768 110.823 454.544 106.729 456.319 102.642 458.749 99.3595 461.838 96.8895 464.769 94.5725 468.206 92.8755 472.144 91.7945 476.079 90.7155 480.133 90.1735 484.301 90.1735L486.616 90.1735 486.616 106.615 481.29 106.615C476.811 106.615 473.492 107.696 471.333 109.855 469.169 112.019 468.09 115.413 468.09 120.046L468.09 151.768 451.881 151.768Z" stroke-width="0" fill="#F7941E"/><path d="M509.188 90.1738 509.188 112.865 528.871 90.1738 548.322 90.1738 526.324 113.793 548.554 151.769 529.102 151.769 517.756 130.928C515.442 126.759 513.434 124.988 511.736 125.602 510.035 126.22 509.188 127.148 509.188 128.381L509.188 151.769 492.979 151.769 492.979 72.1108 501.316 72.1108C503.475 72.1108 505.328 72.8848 506.874 74.4268 508.414 75.9718 509.188 77.7478 509.188 79.7528L509.188 90.1738Z" stroke-width="0" fill="#F7941E"/><path d="M549.944 131.391 565.69 131.391C565.841 134.481 566.999 136.797 569.163 138.337 571.479 139.883 574.565 140.654 578.425 140.654 581.205 140.654 583.595 140.114 585.604 139.032 587.455 137.953 588.383 136.485 588.383 134.634 588.383 131.853 585.141 129.77 578.659 128.38 575.878 127.918 573.795 127.454 572.405 126.992 564.22 124.988 558.743 122.591 555.964 119.814 552.874 117.035 551.333 113.328 551.333 108.699 551.333 102.834 553.569 97.9701 558.048 94.1091 562.679 90.5601 568.701 88.7841 576.11 88.7841 584.134 88.7841 590.543 90.5601 595.33 94.1091 599.804 97.9701 602.197 102.988 602.507 109.161L592.55 109.161C590.808 109.161 589.106 108.654 587.753 107.534 587.026 106.933 586.55 106.184 585.964 105.458 584.803 104.023 583.511 102.835 581.775 102.166 580.051 101.501 578.178 101.288 576.341 101.288 573.252 101.288 570.936 101.751 569.395 102.677 568.006 103.604 567.31 104.994 567.31 106.845 567.31 108.092 568.332 109.026 569.293 109.663 571.099 110.861 573.258 111.54 575.325 112.121 580.958 113.704 586.819 114.44 592.261 116.649 595.047 117.78 597.969 118.864 600.192 120.97 603.123 123.748 604.593 127.454 604.593 132.086 604.593 138.881 602.121 144.126 597.181 147.832 592.55 151.23 585.604 152.926 576.341 152.926 567.541 152.926 560.98 151.152 556.659 147.599 552.179 144.051 549.944 138.881 549.944 132.086L549.944 131.391Z" stroke-width="0" fill="#F7941E"/><path d="M500.567 49.4008C498.54 46.9538 494.912 46.6158 492.466 48.6448L445.651 87.4668C445.518 87.5798 445.394 87.6968 445.269 87.8158 448.328 90.1698 450.836 93.1938 452.584 96.6328 452.724 96.5358 452.863 96.4378 452.996 96.3238L499.81 57.5028C502.258 55.4728 502.593 51.8468 500.567 49.4008" stroke-width="0" fill="#345589"/><path d="M443.483 86.5561C441.738 85.4391 438.917 85.7911 437.379 87.0681L436.525 87.7761C439.762 89.8251 442.679 92.3791 445.148 95.3551 447.677 98.4051 449.621 101.744 451.005 105.237 451.265 105.02 451.542 104.791 451.858 104.527 453.395 103.252 454.267 100.545 453.488 98.6221 453.217 97.9451 452.911 97.2821 452.585 96.6331 450.837 93.1951 448.328 90.1691 445.27 87.8151 444.694 87.3731 444.1 86.9511 443.483 86.5561" stroke-width="0" fill="#284063"/><g clip-path="url(#uuid-432c0e83-655d-4c1f-90e0-6cf791e6105c)"><g opacity="0.4"><g clip-path="url(#uuid-db73e876-a8a6-44cb-b942-e8eec6e66f06)"><g clip-path="url(#uuid-5325481f-b9ca-4902-b568-280b4e436817)"><path d="M438.562 100.781C432.204 93.1102 422.521 89.4662 412.657 90.9712 407.643 91.7392 402.918 93.8652 398.99 97.1192 387.059 107.013 385.351 124.853 395.245 136.783 401.608 144.451 411.18 147.923 421.109 146.708L421.109 146.71C426.054 146.102 430.897 143.733 434.825 140.477 446.754 130.583 448.458 112.712 438.562 100.781" stroke-width="0" fill="#FFFFFF"/></g></g></g></g><path d="M421.109 146.71 421.109 146.71C411.18 147.922 401.606 144.453 395.247 136.783 385.351 124.853 387.041 107.092 398.97 97.1979 402.898 93.9399 407.631 91.7749 412.646 91.0099 422.51 89.5019 432.199 93.1279 438.556 100.798 448.45 112.728 446.752 130.593 434.823 140.485 430.894 143.743 426.053 146.102 421.109 146.71M445.148 95.3559C442.68 92.3799 439.762 89.8249 436.525 87.7759 434.369 86.4089 432.074 85.2629 429.667 84.3759 423.838 82.2219 417.508 81.5759 411.365 82.5149 404.822 83.5149 398.653 86.2779 393.532 90.5249 377.972 103.428 375.809 126.564 388.712 142.124 392.824 147.083 398.111 150.792 404.241 152.671 417.835 156.837 429.063 155.861 440.375 146.509 452.901 136.153 456.709 119.373 451.033 105.039 449.649 101.546 447.677 98.4049 445.148 95.3559" stroke-width="0" fill="#345589"/><path d="M410.324 113.305C407.749 116.726 407.833 122.52 411.125 125.777 416.04 130.641 424.195 128.037 426.457 122.801 428.226 118.707 426.316 114.175 424.398 112.276 422.768 110.661 419.985 109.339 416.503 109.759 413.669 110.099 411.667 111.521 410.324 113.305M420.622 95.4536C421.198 97.2426 421.895 98.9086 422.452 100.718 424.187 101.27 425.941 101.807 427.258 102.778 428.959 101.998 430.639 101.199 432.293 100.376 433.827 101.548 435.068 103.016 436.412 104.38 435.65 106.097 434.85 107.774 434.01 109.415 434.829 110.846 435.581 112.344 435.955 114.22 437.692 114.923 439.524 115.532 441.333 116.166L441.333 121.887C439.545 122.463 437.877 123.161 436.068 123.718 435.517 125.453 434.981 127.208 434.01 128.523 434.789 130.223 435.587 131.903 436.412 133.558 435.239 135.094 433.772 136.333 432.408 137.677 430.689 136.915 429.013 136.115 427.373 135.274 425.941 136.092 424.441 136.844 422.567 137.219 421.865 138.958 421.255 140.789 420.622 142.598L414.9 142.598C414.325 140.808 413.626 139.142 413.07 137.334 411.334 136.78 409.581 136.246 408.265 135.274 406.564 136.054 404.883 136.852 403.229 137.677 401.694 136.505 400.454 135.036 399.109 133.672 399.872 131.955 400.674 130.277 401.513 128.638 400.694 127.206 399.941 125.708 399.568 123.83 397.83 123.13 395.997 122.519 394.19 121.887L394.19 116.166C395.977 115.588 397.645 114.891 399.454 114.335 400.006 112.599 400.541 110.846 401.513 109.529 400.734 107.829 399.935 106.149 399.109 104.494 400.284 102.959 401.75 101.72 403.114 100.376 404.832 101.137 406.511 101.939 408.15 102.778 409.581 101.958 411.08 101.207 412.955 100.833 413.725 99.1206 414.176 97.0936 415.016 95.4536L420.622 95.4536Z" stroke-width="0" fill="#39B54A"/><path d="M247.637 35.2739C248.589 37.0949 251.415 35.8509 254.88 34.2739 258.345 32.6969 258.733 35.4339 258.733 35.4339L263.159 31.7039C262.41 28.6689 261.07 27.1959 259.477 26.7329 254.449 25.2699 246.915 33.8919 247.637 35.2739" stroke-width="0" fill="#345589"/><path d="M285.817 17.5898C279.843 19.5958 262.978 30.9958 255.385 37.7508 255.385 37.7508 255.054 41.0348 258.056 46.7788 260.757 51.9538 263.93 54.1088 263.93 54.1088 273.809 51.7398 292.81 44.4258 297.87 40.6668 302.93 36.9108 306.692 25.6248 304.95 22.2898 304.135 20.7278 301.188 19.1548 297.674 18.1328 293.695 16.9758 288.99 16.5248 285.817 17.5898" stroke-width="0" fill="#F7941E"/><g clip-path="url(#uuid-5300c5db-df58-4a13-9a6a-1066cd886166)"><path d="M263.247 29.9384C263.017 29.0964 262.911 28.6734 262.713 27.8244 263.521 27.6344 263.924 27.5404 264.732 27.3514 264.924 28.1724 265.029 28.5804 265.249 29.3904 264.448 29.6094 264.048 29.7184 263.247 29.9384" stroke-width="0" fill="#64AAB4"/><path d="M261.247 30.4824C261.01 29.6124 260.897 29.1764 260.692 28.2974 261.498 28.1064 261.904 28.0114 262.712 27.8244 262.911 28.6744 263.017 29.0964 263.247 29.9384 262.445 30.1564 262.046 30.2654 261.247 30.4824" stroke-width="0" fill="#FFFFFF"/><path d="M263.247 29.9384C263.477 30.7784 263.599 31.1974 263.858 32.0274 263.064 32.2744 262.668 32.3974 261.876 32.6434 261.608 31.7854 261.483 31.3524 261.247 30.4824 262.045 30.2654 262.445 30.1564 263.247 29.9384" stroke-width="0" fill="#64AAB4"/><path d="M265.249 29.3901C265.472 30.2021 265.588 30.6061 265.84 31.4071 265.045 31.6561 264.649 31.7811 263.858 32.0281 263.6 31.1981 263.478 30.7791 263.247 29.9381 264.047 29.7191 264.448 29.6091 265.249 29.3901" stroke-width="0" fill="#FFFFFF"/><path d="M264.542 34.0883C264.253 33.2703 264.117 32.8573 263.858 32.0283 264.65 31.7803 265.045 31.6553 265.84 31.4073 266.089 32.2113 266.22 32.6093 266.499 33.3993 265.714 33.6763 265.325 33.8133 264.542 34.0883" stroke-width="0" fill="#64AAB4"/><path d="M262.583 34.7778C262.286 33.9298 262.144 33.5028 261.877 32.6428 262.668 32.3978 263.065 32.2748 263.858 32.0278 264.117 32.8578 264.253 33.2708 264.541 34.0878 263.757 34.3648 263.367 34.5028 262.583 34.7778" stroke-width="0" fill="#FFFFFF"/><path d="M264.542 34.0883C264.83 34.9093 264.983 35.3173 265.298 36.1243 264.524 36.4273 264.138 36.5793 263.367 36.8803 263.037 36.0453 262.882 35.6243 262.584 34.7773 263.367 34.5033 263.757 34.3643 264.542 34.0883" stroke-width="0" fill="#64AAB4"/><path d="M266.499 33.3999C266.775 34.1909 266.924 34.5859 267.229 35.3649 266.455 35.6699 266.07 35.8199 265.298 36.1239 264.983 35.3169 264.83 34.9089 264.541 34.0879 265.325 33.8139 265.714 33.6759 266.499 33.3999" stroke-width="0" fill="#FFFFFF"/><path d="M266.124 38.1259C265.781 37.3329 265.616 36.9309 265.297 36.1239 266.069 35.8199 266.455 35.6689 267.228 35.3649 267.535 36.1449 267.694 36.5319 268.026 37.2989 267.265 37.6319 266.886 37.7969 266.124 38.1259" stroke-width="0" fill="#64AAB4"/><path d="M264.222 38.9516C263.865 38.1306 263.692 37.7166 263.367 36.8806 264.138 36.5796 264.525 36.4266 265.298 36.1246 265.616 36.9306 265.781 37.3326 266.124 38.1256 265.364 38.4566 264.982 38.6226 264.222 38.9516" stroke-width="0" fill="#FFFFFF"/><path d="M266.124 38.1259C266.47 38.9209 266.651 39.3169 267.023 40.0979 266.273 40.4549 265.899 40.6349 265.15 40.9919 264.765 40.1839 264.578 39.7749 264.222 38.9519 264.982 38.6219 265.364 38.4559 266.124 38.1259" stroke-width="0" fill="#64AAB4"/><path d="M268.027 37.2998C268.361 38.0668 268.536 38.4478 268.896 39.2028 268.146 39.5618 267.771 39.7408 267.023 40.0978 266.651 39.3168 266.47 38.9218 266.125 38.1258 266.887 37.7958 267.266 37.6308 268.027 37.2998" stroke-width="0" fill="#FFFFFF"/><path d="M267.99 42.0341C267.588 41.2651 267.396 40.8801 267.023 40.0981 267.772 39.7401 268.146 39.5611 268.896 39.2031 269.257 39.9581 269.443 40.3311 269.83 41.0731 269.094 41.4581 268.724 41.6491 267.99 42.0341" stroke-width="0" fill="#64AAB4"/><path d="M266.154 42.9931C265.736 42.2011 265.536 41.8001 265.151 40.9911 265.9 40.6361 266.272 40.4551 267.023 40.0971 267.397 40.8801 267.587 41.2661 267.991 42.0341 267.254 42.4191 266.885 42.6111 266.154 42.9931" stroke-width="0" fill="#FFFFFF"/><path d="M267.99 42.0341C268.39 42.8011 268.598 43.1811 269.025 43.9351 268.304 44.3461 267.944 44.5531 267.224 44.9601 266.78 44.1821 266.567 43.7881 266.153 42.9921 266.886 42.6111 267.253 42.4191 267.99 42.0341" stroke-width="0" fill="#64AAB4"/><path d="M269.83 41.0727C270.216 41.8157 270.417 42.1817 270.832 42.9087 270.109 43.3207 269.747 43.5247 269.025 43.9357 268.598 43.1807 268.39 42.8007 267.99 42.0337 268.725 41.6487 269.093 41.4577 269.83 41.0727" stroke-width="0" fill="#FFFFFF"/><path d="M270.13 45.7988C269.675 45.0588 269.454 44.6878 269.025 43.9358 269.747 43.5248 270.109 43.3198 270.832 42.9078 271.244 43.6368 271.458 43.9968 271.896 44.7098 271.192 45.1428 270.837 45.3628 270.13 45.7988" stroke-width="0" fill="#64AAB4"/><path d="M268.364 46.8862C267.896 46.1242 267.666 45.7392 267.224 44.9602 267.944 44.5522 268.303 44.3452 269.026 43.9362 269.453 44.6872 269.676 45.0592 270.13 45.7992 269.424 46.2342 269.072 46.4522 268.364 46.8862" stroke-width="0" fill="#FFFFFF"/><path d="M270.13 45.7988C270.586 46.5358 270.821 46.9008 271.302 47.6218 270.612 48.0818 270.269 48.3148 269.577 48.7738 269.079 48.0278 268.835 47.6488 268.364 46.8858 269.072 46.4528 269.424 46.2348 270.13 45.7988" stroke-width="0" fill="#64AAB4"/><path d="M271.896 44.7094C272.337 45.4204 272.563 45.7734 273.027 46.4714 272.337 46.9314 271.992 47.1594 271.302 47.6214 270.82 46.8994 270.586 46.5354 270.13 45.7984 270.837 45.3634 271.192 45.1434 271.896 44.7094" stroke-width="0" fill="#FFFFFF"/><path d="M272.54 49.4047C272.033 48.7007 271.785 48.3427 271.302 47.6217 271.992 47.1597 272.337 46.9307 273.028 46.4697 273.494 47.1687 273.732 47.5127 274.223 48.1927 273.551 48.6767 273.214 48.9207 272.54 49.4047" stroke-width="0" fill="#64AAB4"/><path d="M270.857 50.6196C270.332 49.8906 270.076 49.5196 269.577 48.7736 270.269 48.3136 270.612 48.0826 271.303 47.6216 271.785 48.3436 272.032 48.7006 272.54 49.4046 271.866 49.8906 271.529 50.1336 270.857 50.6196" stroke-width="0" fill="#FFFFFF"/><path d="M272.54 49.4047C273.048 50.1087 273.308 50.4577 273.84 51.1437 273.186 51.6537 272.859 51.9077 272.205 52.4187 271.653 51.7067 271.382 51.3487 270.857 50.6187 271.53 50.1337 271.867 49.8917 272.54 49.4047" stroke-width="0" fill="#64AAB4"/><path d="M274.223 48.1919C274.713 48.8739 274.965 49.2079 275.479 49.8709 274.823 50.3799 274.497 50.6339 273.84 51.1439 273.307 50.4589 273.048 50.1089 272.54 49.4039 273.213 48.9209 273.551 48.6789 274.223 48.1919" stroke-width="0" fill="#FFFFFF"/><path d="M275.206 52.8393C274.648 52.1713 274.375 51.8313 273.84 51.1463 274.497 50.6343 274.823 50.3813 275.48 49.8713 275.994 50.5343 276.26 50.8603 276.799 51.5063 276.163 52.0393 275.844 52.3053 275.206 52.8393" stroke-width="0" fill="#64AAB4"/><path d="M273.615 54.1684C273.038 53.4774 272.754 53.1284 272.204 52.4184 272.859 51.9074 273.185 51.6524 273.84 51.1434 274.374 51.8314 274.648 52.1704 275.206 52.8384 274.57 53.3694 274.253 53.6374 273.615 54.1684" stroke-width="0" fill="#FFFFFF"/><path d="M275.206 52.8393C275.766 53.5073 276.052 53.8353 276.636 54.4853 276.019 55.0403 275.711 55.3183 275.095 55.8733 274.489 55.2003 274.194 54.8603 273.615 54.1703 274.252 53.6363 274.569 53.3703 275.206 52.8393" stroke-width="0" fill="#64AAB4"/><path d="M276.799 51.5068C277.337 52.1518 277.613 52.4698 278.178 53.0968 277.56 53.6528 277.254 53.9308 276.637 54.4858 276.052 53.8348 275.766 53.5078 275.207 52.8398 275.844 52.3048 276.164 52.0388 276.799 51.5068" stroke-width="0" fill="#FFFFFF"/><path d="M300.695 40.1552C293.806 32.8802 289.886 25.3712 287.853 15.5612 288.421 15.4752 288.704 15.4292 289.273 15.3432 291.339 24.8932 295.028 31.9632 301.688 39.1142 301.29 39.5302 301.092 39.7382 300.695 40.1552" stroke-width="0" fill="#FFFFFF"/></g><path d="M239.049 41.7812C210.464 57.6512 189.617 84.7912 179.667 99.6722L179.667 101.072C209.624 61.2132 241.303 44.4232 241.303 44.4232L239.049 41.7812Z" stroke-width="0" fill="#F7941E"/><path d="M614.833 184.334C614.833 188.068 611.806 191.095 608.071 191.095 604.336 191.095 601.312 188.068 601.312 184.334 601.312 180.6 604.337 177.572 608.071 177.572 611.805 177.572 614.833 180.599 614.833 184.334" stroke-width="0" fill="#FFFFFF"/><path d="M21.3415 184.334C21.3415 188.068 18.3135 191.095 14.5805 191.095 10.8455 191.095 7.8195 188.068 7.8195 184.334 7.8195 180.6 10.8455 177.572 14.5805 177.572 18.3135 177.572 21.3415 180.599 21.3415 184.334" stroke-width="0" fill="#FFFFFF"/><path d="M17.7497 182.643C17.7497 184.044 16.3307 185.179 14.5807 185.179 12.8297 185.179 11.4107 184.044 11.4107 182.643L11.4107 152.22C11.4107 150.819 12.8297 149.683 14.5807 149.683 16.3307 149.683 17.7497 150.819 17.7497 152.22L17.7497 182.643Z" stroke-width="0" fill="#BCBEC0"/><path d="M614.621 184.334C614.621 188.068 611.594 191.095 607.86 191.095 604.126 191.095 601.1 188.068 601.1 184.334 601.1 180.6 604.125 177.572 607.86 177.572 611.595 177.572 614.621 180.599 614.621 184.334" stroke-width="0" fill="#FFFFFF"/><path d="M611.03 182.643C611.03 184.044 609.611 185.179 607.86 185.179 606.11 185.179 604.691 184.044 604.691 182.643L604.691 152.22C604.691 150.819 606.11 149.683 607.86 149.683 609.611 149.683 611.03 150.819 611.03 152.22L611.03 182.643Z" stroke-width="0" fill="#BCBEC0"/><path d="M178.62 58.2685C178.736 58.2775 178.159 58.1685 179.146 58.1795L179.146 56.6965C179.146 55.6295 177.902 54.7935 176.837 54.7935L168.437 54.7935C167.371 54.7935 167.299 55.6295 167.299 56.6965L167.299 58.7425 166.51 58.7425 178.62 58.2685Z" stroke-width="0" fill="#345589"/><path d="M248.305 61.2268 242.61 48.9768C220.005 61.9473 196.585 83.2904 179.145 103.681L179.145 79.4743 167.298 79.4743 167.298 149.704C167.298 150.77 167.37 152.033 168.436 152.033L176.837 152.033C177.902 152.033 179.145 150.77 179.145 149.704L179.145 130.731 200.212 150.951 223.841 150.951 181.488 110.679C209.807 82.4784 248.305 61.2269 248.305 61.2269Z" stroke-width="0" fill="#345589"/><path d="M166.51 79.4742 167.298 79.4742 167.298 79.2602 166.51 79.4742Z" stroke-width="0" fill="#345589"/><path d="M178.765 58.1792C178.651 58.1692 178.546 58.2782 178.431 58.2682L166.51 58.7422 166.507 58.7422C166.486 58.7422 161.443 60.9082 157.944 60.9082 154.438 60.9082 149.157 57.7562 149.157 57.7562L141.137 57.7562 141.137 74.5382 149.682 74.5382C149.682 74.5382 154.593 71.6002 158.447 71.6002 162.303 71.6002 165.81 72.1112 165.81 72.1112L166.507 79.4022 166.51 79.4732 179.834 79.4732C179.834 79.4732 179.515 72.6362 182.989 70.2352 187.359 67.2102 196.064 69.0892 200.166 76.0122 200.166 76.0122 204.326 60.3492 178.765 58.1792" stroke-width="0" fill="#939598"/><path d="M171.741 147.76C171.741 148.365 171.203 149.072 170.597 149.072L170.542 149.072C169.937 149.072 169.766 148.365 169.766 147.76L169.766 83.3512C169.766 82.7482 169.937 82.4352 170.542 82.4352L170.597 82.4352C171.203 82.4352 171.741 82.7482 171.741 83.3512L171.741 147.76Z" stroke-width="0" fill="#27AAE1"/><path d="M176.183 147.76C176.183 148.365 175.691 149.072 175.087 149.072L175.031 149.072C174.426 149.072 173.714 148.365 173.714 147.76L173.714 83.3512C173.714 82.7482 174.426 82.4352 175.031 82.4352L175.087 82.4352C175.691 82.4352 176.183 82.7482 176.183 83.3512L176.183 147.76Z" stroke-width="0" fill="#27AAE1"/><path d="M91.2199 61.0473 94.4949 67.3783C96.5479 71.3493 94.9949 76.2313 91.0239 78.2853 87.0529 80.3383 82.1719 78.7823 80.1169 74.8163L76.9849 68.7603C75.0939 72.6123 74.9869 77.2763 77.1089 81.3773 80.6599 88.2443 89.1079 90.9333 95.9759 87.3813 102.843 83.8273 105.531 75.3813 101.978 68.5153 99.7669 64.2413 95.6609 61.5883 91.2199 61.0473" stroke-width="0" fill="#39B54A"/><path d="M95.4972 82.7426 83.1372 81.4696 75.2972 136.403 87.6572 137.677 95.4972 82.7426Z" stroke-width="0" fill="#39B54A"/><path d="M82.4737 151.359 76.0347 150.695 73.3747 144.925 77.1537 139.817 83.5937 140.479 86.2537 146.251 82.4737 151.359ZM81.0417 133.682C74.5127 133.011 68.6717 137.757 67.9987 144.288 67.3277 150.818 72.0767 156.655 78.6047 157.326 85.1337 157.999 90.9727 153.253 91.6447 146.722 92.3167 140.193 87.5707 134.355 81.0417 133.682" stroke-width="0" fill="#39B54A"/><path d="M80.0646 134.592C80.0196 135.03 79.1246 135.296 78.6246 135.246 78.1226 135.193 77.2996 134.75 77.3456 134.312L84.1746 89.2018C84.2196 88.7648 85.1136 88.4968 85.6156 88.5488 86.1166 88.5998 86.9376 89.0448 86.8926 89.4818L80.0646 134.592Z" stroke-width="0" fill="#009444"/><path d="M308.598 75.2319C304.563 76.5539 300.467 75.1079 298.694 69.7099 296.609 63.3549 301.907 54.8359 300.108 49.3509 301.907 54.8359 311.222 58.5629 313.306 64.9169 315.077 70.3149 312.632 73.9069 308.598 75.2319" stroke-width="0" fill="#39B54A"/><path d="M333.338 148.012 316.243 76.4757C316.068 75.8757 315.349 75.5767 314.645 75.8087L309.357 77.5407 309.357 77.5423 304.068 79.2767C303.362 79.5077 302.961 80.1767 303.174 80.7607L328.668 149.544C328.879 150.129 329.632 150.419 330.335 150.189L331.356 149.853 331.357 149.855 332.374 149.519C333.077 149.289 333.513 148.611 333.338 148.012Z" stroke-width="0" fill="#345589"/><path d="M358.76 147.61 374.17 76.4238C374.324 75.8178 375.032 75.4938 375.744 75.6998L386.439 78.7908C387.151 78.9948 387.577 79.6508 387.384 80.2408L363.483 148.975C363.29 149.567 362.55 149.883 361.839 149.678L359.778 149.082C359.066 148.876 358.608 148.215 358.76 147.61" stroke-width="0" fill="#345589"/><path d="M381.767 74.9082C385.845 76.0862 389.889 74.4962 391.467 69.0372 393.325 62.6132 387.728 54.2882 389.33 48.7412 387.728 54.2882 378.55 58.3422 376.694 64.7682 375.117 70.2242 377.688 73.7282 381.767 74.9082" stroke-width="0" fill="#F15A29"/><path d="M375.744 75.6998C375.032 75.4938 374.324 75.8178 374.17 76.4238L358.76 147.61C358.608 148.215 359.066 148.876 359.778 149.082L360.806 149.381 381.09 77.2438 375.744 75.6998Z" stroke-width="0" fill="#345589"/><path d="M232.163 10.5117 235.402 17.0737 242.643 18.1267 237.404 23.2337 238.64 30.4477 232.163 27.0427 225.686 30.4477 226.922 23.2337 221.682 18.1267 228.924 17.0737 232.163 10.5117Z" stroke-width="0" fill="#33B3E2"/><path d="M317.703 35.5039 319.525 39.1959 323.599 39.7869 320.651 42.6599 321.347 46.7189 317.703 44.8029 314.059 46.7189 314.755 42.6599 311.807 39.7869 315.882 39.1959 317.703 35.5039Z" stroke-width="0" fill="#345589"/><path d="M284.887 0 286.139 2.539 288.941 2.945 286.913 4.92 287.392 7.71 284.887 6.393 282.382 7.71 282.861 4.92 280.833 2.945 283.635 2.539 284.887 0Z" stroke-width="0" fill="#39B54A"/><path d="M12.9191 56.6557 38.2771 65.5037 61.8671 54.8867 37.0981 48.3997 12.9191 56.6557Z" stroke-width="0" fill="#F7941E"/><path d="M19.4059 60.7851 19.9949 72.5791C19.9949 72.5791 36.1149 86.1431 54.7899 73.1691L54.3979 60.7851 37.6869 67.8621 19.4059 60.7851Z" stroke-width="0" fill="#F7941E"/><path d="M43.8244 57.3652C43.8244 57.3652 50.4464 58.3842 51.4654 72.1382L53.5034 67.5532 59.6164 71.6292C59.6164 71.6292 53.5034 54.3082 43.8244 57.3652" stroke-width="0" fill="#345589"/><path d="M621.677 81.8686C621.677 85.6866 618.581 88.7826 614.763 88.7826 610.945 88.7826 607.85 85.6866 607.85 81.8686 607.85 78.0506 610.946 74.9546 614.763 74.9546 618.58 74.9546 621.677 78.0506 621.677 81.8686Z" stroke="#345589" stroke-miterlimit="10" fill="none"/><path d="M612.321 77.7127 615.191 77.7127C615.714 77.7127 616.143 77.784 616.482 77.9261 616.82 78.0682 617.086 78.2489 617.283 78.4676 617.478 78.6868 617.615 78.9329 617.692 79.2054 617.768 79.4783 617.807 79.7415 617.807 79.995 617.807 80.2562 617.761 80.5077 617.669 80.7499 617.577 80.9921 617.444 81.2108 617.271 81.4066 617.098 81.6029 616.886 81.7679 616.637 81.9022 616.387 82.037 616.109 82.1195 615.801 82.1502L618.118 85.8729 616.735 85.8729 614.661 82.2772 613.427 82.2772 613.427 85.8729 612.321 85.8729 612.321 77.7127ZM613.427 81.3089 614.879 81.3089C615.094 81.3089 615.308 81.2913 615.519 81.2571 615.73 81.2224 615.918 81.159 616.083 81.0667 616.249 80.9744 616.381 80.8421 616.482 80.6692 616.581 80.4963 616.631 80.2713 616.631 79.9949 616.631 79.718 616.581 79.4934 616.482 79.3206 616.381 79.1477 616.248 79.0154 616.083 78.9231 615.919 78.8308 615.73 78.7673 615.519 78.7327 615.308 78.6981 615.094 78.6809 614.879 78.6809L613.427 78.6809 613.427 81.3088Z" stroke-width="0" fill="#345589"/><path d="M32.5505 178.961 35.3796 178.961 35.3796 175.592 38.3044 174.828 38.3044 178.961 43.3269 178.961 43.3269 181.44 38.3044 181.44 38.3044 189.959C38.3044 191.295 38.4738 192.237 38.8127 192.788 39.1516 193.34 39.7346 193.615 40.5612 193.615 41.0905 193.615 41.5729 193.557 42.0075 193.44 42.4416 193.324 42.9343 193.17 43.4855 192.98L44.153 195.046C43.4748 195.343 42.7492 195.591 41.9758 195.792 41.2019 195.993 40.3703 196.095 39.4802 196.095 37.9968 196.095 36.9426 195.691 36.3176 194.887 35.6921 194.081 35.3796 192.768 35.3796 190.945L35.3796 181.44 32.5505 181.44 32.5505 178.961Z" stroke-width="0" fill="#FFFFFF"/><path d="M56.1691 181.727C55.8083 181.637 55.4587 181.556 55.1198 181.484 54.7809 181.413 54.4631 181.377 54.1662 181.377 53.0427 181.377 52.1686 181.662 51.5436 182.231 50.9186 182.801 50.5314 183.518 50.3834 184.383L50.3834 195.649 47.4591 195.649 47.4591 178.961 49.4933 178.961 50.0656 181.186 50.3517 181.186C50.839 180.359 51.4059 179.719 52.0524 179.263 52.6984 178.807 53.5089 178.579 54.484 178.579 54.7809 178.579 55.1305 178.606 55.5333 178.659 55.9356 178.712 56.3385 178.802 56.7408 178.929L56.169 181.727Z" stroke-width="0" fill="#FFFFFF"/><path d="M59.3474 180.01C61.2546 179.099 63.6174 178.643 66.4363 178.643 67.7078 178.643 68.7298 178.807 69.5037 179.136 70.2771 179.465 70.8758 179.883 71.2996 180.392 71.7234 180.9 72.0042 181.467 72.1424 182.092 72.2796 182.717 72.3489 183.337 72.3489 183.951 72.3489 185.117 72.3059 186.288 72.2215 187.464 72.1365 188.641 72.0945 189.917 72.0945 191.295 72.0945 192.101 72.1311 192.879 72.2058 193.631 72.2795 194.384 72.4016 195.077 72.571 195.713L70.4416 195.713 69.6467 193.17 69.3288 193.17C69.0954 193.488 68.8093 193.811 68.4704 194.14 68.1315 194.469 67.7287 194.76 67.2629 195.014 66.7961 195.268 66.2614 195.48 65.6574 195.649 65.0534 195.818 64.3591 195.903 63.5754 195.903 62.7912 195.903 62.0705 195.792 61.4138 195.57 60.7566 195.348 60.1897 195.035 59.7131 194.632 59.236 194.229 58.8596 193.737 58.5847 193.154 58.3088 192.571 58.1716 191.92 58.1716 191.199 58.1716 190.245 58.3781 189.419 58.7912 188.72 59.2043 188.02 59.7394 187.448 60.3967 187.003 61.0529 186.559 61.8 186.229 62.6374 186.017 63.4743 185.807 64.3063 185.7 65.133 185.7 65.7892 185.7 66.3459 185.711 66.8019 185.731 67.257 185.753 67.6388 185.779 67.9459 185.811 68.253 185.842 68.5128 185.875 68.7247 185.906 68.9361 185.938 69.127 185.965 69.297 185.986 69.339 185.668 69.3712 185.392 69.3922 185.159 69.4132 184.927 69.4239 184.63 69.4239 184.269 69.4239 183.677 69.3604 183.178 69.2335 182.775 69.1061 182.373 68.8995 182.05 68.6134 181.806 68.3273 181.562 67.9405 181.388 67.4532 181.281 66.9654 181.176 66.3726 181.122 65.6729 181.122 65.2701 181.122 64.8252 181.154 64.3379 181.218 63.8501 181.281 63.3628 181.372 62.876 181.488 62.3882 181.604 61.9063 181.748 61.4292 181.917 60.9526 182.087 60.5234 182.266 60.1421 182.457L59.3472 180.01ZM69.2971 188.084C69.1286 188.063 68.9499 188.031 68.7605 187.988 68.5715 187.946 68.3352 187.915 68.0515 187.893 67.7673 187.872 67.4309 187.85 67.0422 187.83 66.653 187.809 66.175 187.798 65.6071 187.798 64.3039 187.798 63.2682 188.031 62.5011 188.497 61.7335 188.964 61.3502 189.758 61.3502 190.881 61.3502 191.729 61.6495 192.365 62.2486 192.788 62.8477 193.213 63.6202 193.424 64.5665 193.424 65.2599 193.424 65.8746 193.334 66.4112 193.154 66.9478 192.975 67.4102 192.752 67.7989 192.486 68.1881 192.222 68.503 191.925 68.7452 191.597 68.9864 191.268 69.171 190.945 69.297 190.627L69.297 188.084Z" stroke-width="0" fill="#FFFFFF"/><path d="M89.8952 195.649 89.8952 186.431C89.8952 184.65 89.6091 183.315 89.0368 182.426 88.4645 181.536 87.4474 181.091 85.985 181.091 84.692 181.091 83.6168 181.425 82.7584 182.092 81.9005 182.76 81.3014 183.613 80.9625 184.65L80.9625 195.649 78.0382 195.649 78.0382 178.961 80.0724 178.961 80.6447 181.185 80.9308 181.185C81.5451 180.423 82.3454 179.782 83.3307 179.262 84.3161 178.744 85.4972 178.484 86.8751 178.484 87.8497 178.484 88.7081 178.596 89.4498 178.817 90.1915 179.04 90.8111 179.432 91.3097 179.994 91.8073 180.555 92.1837 181.309 92.4381 182.251 92.6925 183.194 92.8194 184.386 92.8194 185.827L92.8194 195.649 89.8951 195.649Z" stroke-width="0" fill="#FFFFFF"/><path d="M106.838 190.977C106.838 190.553 106.737 190.198 106.535 189.912 106.334 189.626 106.064 189.382 105.725 189.181 105.385 188.979 104.994 188.805 104.549 188.656 104.104 188.508 103.637 188.359 103.15 188.211 102.535 188.042 101.915 187.856 101.291 187.655 100.665 187.454 100.103 187.178 99.6057 186.828 99.1077 186.479 98.6999 186.028 98.3821 185.477 98.0643 184.927 97.905 184.227 97.905 183.379 97.905 181.727 98.3977 180.498 99.383 179.692 100.369 178.887 101.752 178.484 103.531 178.484 104.866 178.484 105.989 178.611 106.901 178.865 107.812 179.12 108.607 179.396 109.285 179.692L108.586 182.172C108.013 181.896 107.33 181.626 106.535 181.361 105.741 181.096 104.866 180.964 103.913 180.964 102.874 180.964 102.101 181.134 101.592 181.472 101.084 181.811 100.83 182.426 100.83 183.316 100.83 183.677 100.925 183.979 101.116 184.222 101.306 184.466 101.561 184.678 101.879 184.857 102.196 185.038 102.567 185.196 102.991 185.334 103.415 185.473 103.86 185.605 104.326 185.732 104.962 185.901 105.598 186.098 106.233 186.319 106.869 186.542 107.452 186.839 107.981 187.21 108.511 187.581 108.94 188.052 109.269 188.624 109.597 189.196 109.762 189.917 109.762 190.786 109.762 192.355 109.232 193.631 108.172 194.616 107.112 195.602 105.523 196.095 103.404 196.095 102.048 196.095 100.866 195.956 99.8598 195.682 98.853 195.406 98.0107 195.088 97.3325 194.728L98.1592 192.185C98.7525 192.502 99.5152 192.82 100.448 193.139 101.38 193.456 102.323 193.615 103.277 193.615 104.315 193.615 105.169 193.43 105.836 193.059 106.504 192.689 106.838 191.994 106.838 190.977Z" stroke-width="0" fill="#FFFFFF"/><path d="M112.241 178.961 115.07 178.961 115.07 178.516C115.07 177.477 115.166 176.604 115.356 175.893 115.547 175.184 115.849 174.611 116.262 174.177 116.675 173.743 117.216 173.43 117.883 173.239 118.551 173.049 119.361 172.953 120.315 172.953 121.12 172.953 121.825 173.001 122.429 173.096 123.033 173.191 123.663 173.355 124.32 173.589L123.685 175.973C123.133 175.74 122.62 175.592 122.143 175.527 121.666 175.464 121.205 175.433 120.76 175.433 120.167 175.433 119.69 175.485 119.33 175.592 118.969 175.697 118.689 175.883 118.487 176.148 118.286 176.413 118.153 176.774 118.09 177.229 118.026 177.685 117.995 178.262 117.995 178.961L122.89 178.961 122.89 181.441 117.995 181.441 117.995 195.65 115.07 195.65 115.07 181.441 112.241 181.441 112.241 178.961Z" stroke-width="0" fill="#FFFFFF"/><path d="M124.638 187.321C124.638 185.943 124.818 184.71 125.179 183.618 125.539 182.526 126.069 181.6 126.768 180.836 127.467 180.073 128.32 179.491 129.327 179.088 130.333 178.686 131.483 178.484 132.776 178.484 134.132 178.484 135.319 178.707 136.336 179.152 137.354 179.597 138.201 180.217 138.879 181.011 139.557 181.806 140.06 182.738 140.389 183.809 140.718 184.879 140.882 186.05 140.882 187.322 140.882 188.678 140.696 189.896 140.326 190.977 139.955 192.058 139.425 192.98 138.736 193.742 138.048 194.505 137.2 195.088 136.193 195.49 135.186 195.893 134.048 196.095 132.776 196.095 131.378 196.095 130.17 195.872 129.152 195.427 128.135 194.982 127.293 194.367 126.625 193.583 125.958 192.8 125.46 191.872 125.131 190.802 124.803 189.733 124.638 188.571 124.638 187.321ZM127.817 187.321C127.817 188.105 127.906 188.874 128.084 189.626 128.262 190.378 128.549 191.051 128.947 191.645 129.344 192.237 129.857 192.715 130.485 193.074 131.113 193.436 131.887 193.615 132.807 193.615 136.071 193.615 137.703 191.517 137.703 187.321 137.703 186.494 137.615 185.7 137.436 184.937 137.259 184.174 136.976 183.502 136.589 182.918 136.202 182.336 135.695 181.864 135.067 181.504 134.439 181.143 133.686 180.964 132.807 180.964 131.176 180.964 129.936 181.488 129.088 182.537 128.241 183.586 127.817 185.181 127.817 187.321Z" stroke-width="0" fill="#FFFFFF"/><path d="M154.296 181.727C153.935 181.637 153.586 181.556 153.247 181.484 152.908 181.413 152.59 181.377 152.293 181.377 151.17 181.377 150.296 181.662 149.671 182.231 149.046 182.801 148.658 183.518 148.51 184.383L148.51 195.649 145.586 195.649 145.586 178.961 147.62 178.961 148.193 181.186 148.479 181.186C148.966 180.359 149.533 179.719 150.179 179.263 150.825 178.807 151.636 178.579 152.611 178.579 152.908 178.579 153.258 178.606 153.66 178.659 154.063 178.712 154.465 178.802 154.868 178.929L154.296 181.727Z" stroke-width="0" fill="#FFFFFF"/><path d="M168.473 195.649 168.473 186.494C168.473 185.605 168.43 184.82 168.346 184.143 168.261 183.464 168.091 182.897 167.837 182.441 167.583 181.986 167.228 181.646 166.772 181.425 166.316 181.202 165.728 181.091 165.008 181.091 163.884 181.091 162.947 181.403 162.195 182.028 161.443 182.653 160.907 183.454 160.589 184.429L160.589 195.649 157.665 195.649 157.665 178.961 159.667 178.961 160.24 181.185 160.558 181.185C161.236 180.423 162.015 179.782 162.894 179.262 163.773 178.744 164.891 178.484 166.248 178.484 167.392 178.484 168.351 178.727 169.125 179.215 169.898 179.703 170.486 180.518 170.889 181.663 171.525 180.688 172.33 179.914 173.305 179.343 174.279 178.77 175.371 178.484 176.579 178.484 177.596 178.484 178.459 178.6 179.169 178.834 179.879 179.067 180.457 179.469 180.902 180.042 181.347 180.614 181.675 181.387 181.887 182.362 182.099 183.337 182.205 184.566 182.205 186.05L182.205 195.649 179.281 195.649 179.281 186.05C179.281 185.202 179.233 184.471 179.138 183.856 179.042 183.242 178.867 182.727 178.613 182.314 178.359 181.901 178.003 181.594 177.548 181.392 177.092 181.191 176.494 181.09 175.752 181.09 174.545 181.09 173.591 181.408 172.891 182.044 172.192 182.679 171.694 183.633 171.398 184.905L171.398 195.649 168.473 195.649Z" stroke-width="0" fill="#FFFFFF"/><path d="M188.023 174.987C188.023 174.5 188.213 174.061 188.594 173.668 188.976 173.276 189.474 173.08 190.089 173.08 190.703 173.08 191.212 173.276 191.614 173.668 192.017 174.061 192.218 174.5 192.218 174.987 192.218 175.476 192.017 175.904 191.614 176.274 191.212 176.645 190.703 176.831 190.089 176.831 189.474 176.831 188.976 176.645 188.594 176.274 188.213 175.904 188.023 175.476 188.023 174.987ZM188.627 178.961 191.551 178.961 191.551 195.649 188.627 195.649 188.627 178.961Z" stroke-width="0" fill="#FFFFFF"/><path d="M209.733 195.649 209.733 186.431C209.733 184.65 209.447 183.315 208.875 182.426 208.302 181.536 207.285 181.091 205.823 181.091 204.53 181.091 203.455 181.425 202.596 182.092 201.738 182.76 201.139 183.613 200.8 184.65L200.8 195.649 197.876 195.649 197.876 178.961 199.91 178.961 200.483 181.185 200.769 181.185C201.383 180.423 202.183 179.782 203.169 179.262 204.154 178.744 205.335 178.484 206.713 178.484 207.688 178.484 208.546 178.596 209.288 178.817 210.029 179.04 210.649 179.432 211.148 179.994 211.645 180.555 212.022 181.309 212.276 182.251 212.53 183.194 212.657 184.386 212.657 185.827L212.657 195.649 209.733 195.649Z" stroke-width="0" fill="#FFFFFF"/><path d="M232.524 195.745C232.524 197.927 231.883 199.554 230.601 200.624 229.318 201.694 227.438 202.23 224.959 202.23 223.517 202.23 222.352 202.145 221.462 201.976 220.572 201.806 219.809 201.572 219.173 201.275L219.871 198.638C220.145 198.765 220.462 198.896 220.821 199.035 221.18 199.173 221.561 199.294 221.962 199.4 222.363 199.506 222.77 199.591 223.182 199.654 223.594 199.718 223.99 199.75 224.371 199.75 225.406 199.75 226.261 199.659 226.938 199.48 227.613 199.3 228.152 199.019 228.554 198.638 228.955 198.256 229.23 197.769 229.378 197.175 229.525 196.582 229.6 195.872 229.6 195.046L229.6 193.869 229.251 193.869C228.912 194.421 228.321 194.865 227.475 195.204 226.63 195.544 225.605 195.713 224.4 195.713 221.99 195.713 220.215 195.061 219.073 193.758 217.932 192.455 217.361 190.352 217.361 187.448 217.361 184.587 218.103 182.384 219.587 180.836 221.07 179.29 223.274 178.516 226.198 178.516 227.597 178.516 228.799 178.601 229.806 178.77 230.812 178.94 231.718 179.162 232.524 179.438L232.524 195.745ZM225.07 193.233C226.349 193.233 227.35 192.905 228.074 192.248 228.797 191.592 229.295 190.733 229.568 189.673L229.568 181.472C229.085 181.324 228.529 181.207 227.9 181.122 227.272 181.038 226.559 180.995 225.762 180.995 224.126 180.995 222.847 181.519 221.924 182.568 221.001 183.618 220.54 185.223 220.54 187.385 220.54 189.25 220.881 190.69 221.563 191.708 222.244 192.724 223.413 193.233 225.07 193.233Z" stroke-width="0" fill="#FFFFFF"/><path d="M250.738 191.23C250.738 192.1 250.902 192.715 251.231 193.074 251.559 193.436 251.999 193.615 252.55 193.615 252.889 193.615 253.217 193.594 253.535 193.552 253.853 193.509 254.235 193.424 254.68 193.297L255.061 195.459C254.849 195.544 254.595 195.623 254.298 195.697 254.001 195.771 253.695 195.84 253.377 195.903 253.059 195.968 252.741 196.015 252.423 196.047 252.105 196.078 251.819 196.095 251.565 196.095 250.42 196.095 249.509 195.803 248.831 195.221 248.152 194.638 247.814 193.668 247.814 192.312L247.814 173.398 250.738 173.398 250.738 191.23Z" stroke-width="0" fill="#FFFFFF"/><path d="M271.686 194.282C270.944 194.834 270.022 195.273 268.921 195.602 267.819 195.93 266.621 196.095 265.329 196.095 263.93 196.095 262.716 195.888 261.689 195.475 260.661 195.061 259.819 194.474 259.162 193.71 258.505 192.947 258.018 192.025 257.7 190.945 257.382 189.864 257.223 188.656 257.223 187.321 257.223 184.46 257.927 182.273 259.337 180.757 260.746 179.242 262.754 178.484 265.361 178.484 266.187 178.484 267.013 178.574 267.84 178.754 268.667 178.935 269.408 179.273 270.065 179.771 270.722 180.27 271.257 180.953 271.671 181.821 272.084 182.691 272.29 183.824 272.29 185.223 272.29 185.562 272.28 185.954 272.259 186.4 272.237 186.844 272.195 187.279 272.132 187.702L260.211 187.702C260.253 189.652 260.72 191.125 261.61 192.121 262.5 193.117 264.014 193.615 266.155 193.615 267.045 193.615 267.893 193.462 268.698 193.154 269.504 192.847 270.129 192.481 270.574 192.058L271.686 194.282ZM269.493 185.605C269.535 183.909 269.191 182.712 268.46 182.013 267.729 181.314 266.706 180.964 265.392 180.964 263.909 180.964 262.733 181.314 261.864 182.013 260.995 182.712 260.486 183.909 260.338 185.605L269.493 185.605Z" stroke-width="0" fill="#FFFFFF"/><path d="M276.931 180.01C278.838 179.099 281.201 178.643 284.02 178.643 285.291 178.643 286.313 178.807 287.087 179.136 287.861 179.465 288.459 179.883 288.883 180.392 289.307 180.9 289.588 181.467 289.726 182.092 289.863 182.717 289.932 183.337 289.932 183.951 289.932 185.117 289.889 186.288 289.805 187.464 289.72 188.641 289.678 189.917 289.678 191.295 289.678 192.101 289.715 192.879 289.789 193.631 289.863 194.384 289.985 195.077 290.154 195.713L288.025 195.713 287.23 193.17 286.912 193.17C286.679 193.488 286.393 193.811 286.054 194.14 285.715 194.469 285.312 194.76 284.846 195.014 284.379 195.268 283.845 195.48 283.241 195.649 282.637 195.818 281.943 195.903 281.159 195.903 280.375 195.903 279.654 195.792 278.997 195.57 278.34 195.348 277.773 195.035 277.297 194.632 276.819 194.229 276.443 193.737 276.168 193.154 275.892 192.571 275.755 191.92 275.755 191.199 275.755 190.245 275.961 189.419 276.375 188.72 276.788 188.02 277.323 187.448 277.98 187.003 278.636 186.559 279.383 186.229 280.221 186.017 281.058 185.807 281.89 185.7 282.716 185.7 283.373 185.7 283.929 185.711 284.385 185.731 284.84 185.753 285.222 185.779 285.529 185.811 285.836 185.842 286.096 185.875 286.308 185.906 286.52 185.938 286.71 185.965 286.88 185.986 286.922 185.668 286.955 185.392 286.976 185.159 286.997 184.927 287.007 184.63 287.007 184.269 287.007 183.677 286.944 183.178 286.817 182.775 286.69 182.373 286.483 182.05 286.197 181.806 285.911 181.562 285.524 181.388 285.037 181.281 284.549 181.176 283.956 181.122 283.256 181.122 282.853 181.122 282.409 181.154 281.921 181.218 281.434 181.281 280.946 181.372 280.459 181.488 279.972 181.604 279.49 181.748 279.013 181.917 278.536 182.087 278.107 182.266 277.725 182.457L276.931 180.01ZM286.88 188.084C286.712 188.063 286.533 188.031 286.344 187.988 286.155 187.946 285.919 187.915 285.635 187.893 285.351 187.872 285.014 187.85 284.626 187.83 284.236 187.809 283.758 187.798 283.19 187.798 281.887 187.798 280.852 188.031 280.085 188.497 279.317 188.964 278.934 189.758 278.934 190.881 278.934 191.729 279.233 192.365 279.832 192.788 280.431 193.213 281.204 193.424 282.15 193.424 282.843 193.424 283.458 193.334 283.995 193.154 284.531 192.975 284.994 192.752 285.382 192.486 285.772 192.222 286.086 191.925 286.329 191.597 286.57 191.268 286.754 190.945 286.88 190.627L286.88 188.084Z" stroke-width="0" fill="#FFFFFF"/><path d="M304.332 181.727C303.971 181.637 303.621 181.556 303.282 181.484 302.944 181.413 302.626 181.377 302.329 181.377 301.205 181.377 300.331 181.662 299.706 182.231 299.081 182.801 298.694 183.518 298.546 184.383L298.546 195.649 295.622 195.649 295.622 178.961 297.656 178.961 298.228 181.186 298.514 181.186C299.002 180.359 299.569 179.719 300.215 179.263 300.861 178.807 301.672 178.579 302.647 178.579 302.944 178.579 303.293 178.606 303.696 178.659 304.098 178.712 304.501 178.802 304.903 178.929L304.332 181.727Z" stroke-width="0" fill="#FFFFFF"/><path d="M319.558 195.649 319.558 186.431C319.558 184.65 319.271 183.315 318.699 182.426 318.127 181.536 317.109 181.091 315.648 181.091 314.355 181.091 313.279 181.425 312.422 182.092 311.562 182.76 310.965 183.613 310.625 184.65L310.625 195.649 307.701 195.649 307.701 178.961 309.735 178.961 310.307 181.185 310.593 181.185C311.209 180.423 312.008 179.782 312.994 179.262 313.978 178.744 315.16 178.484 316.539 178.484 317.511 178.484 318.371 178.596 319.113 178.817 319.853 179.04 320.474 179.432 320.972 179.994 321.47 180.556 321.845 181.309 322.101 182.251 322.355 183.194 322.482 184.386 322.482 185.827L322.482 195.649 319.558 195.649Z" stroke-width="0" fill="#FFFFFF"/><path d="M341.65 194.282C340.908 194.834 339.986 195.273 338.884 195.602 337.782 195.93 336.585 196.095 335.292 196.095 333.893 196.095 332.68 195.888 331.652 195.475 330.625 195.061 329.782 194.474 329.126 193.71 328.469 192.947 327.981 192.025 327.663 190.945 327.345 189.864 327.186 188.656 327.186 187.321 327.186 184.46 327.89 182.273 329.301 180.757 330.71 179.242 332.717 178.484 335.324 178.484 336.15 178.484 336.977 178.574 337.803 178.754 338.63 178.935 339.372 179.273 340.028 179.771 340.685 180.27 341.22 180.953 341.634 181.821 342.047 182.691 342.254 183.824 342.254 185.223 342.254 185.562 342.243 185.954 342.221 186.4 342.201 186.844 342.158 187.279 342.094 187.702L330.174 187.702C330.216 189.652 330.683 191.125 331.573 192.121 332.462 193.117 333.978 193.615 336.119 193.615 337.008 193.615 337.856 193.462 338.662 193.154 339.466 192.847 340.092 192.481 340.537 192.058L341.65 194.282ZM339.457 185.605C339.499 183.909 339.154 182.712 338.423 182.013 337.692 181.314 336.67 180.964 335.356 180.964 333.872 180.964 332.696 181.314 331.827 182.013 330.958 182.712 330.45 183.909 330.301 185.605L339.457 185.605Z" stroke-width="0" fill="#FFFFFF"/><path d="M355.795 181.727C355.434 181.637 355.085 181.556 354.746 181.484 354.407 181.413 354.089 181.377 353.793 181.377 352.669 181.377 351.795 181.662 351.17 182.231 350.545 182.801 350.158 183.518 350.009 184.383L350.009 195.649 347.085 195.649 347.085 178.961 349.12 178.961 349.692 181.186 349.978 181.186C350.465 180.359 351.032 179.719 351.678 179.263 352.325 178.807 353.135 178.579 354.11 178.579 354.407 178.579 354.757 178.606 355.159 178.659 355.561 178.712 355.965 178.802 356.367 178.929L355.795 181.727Z" stroke-width="0" fill="#FFFFFF"/><path d="M367.588 190.977C367.588 190.553 367.487 190.198 367.286 189.912 367.085 189.626 366.814 189.382 366.475 189.181 366.137 188.98 365.744 188.805 365.299 188.656 364.854 188.508 364.387 188.359 363.9 188.211 363.286 188.042 362.666 187.856 362.041 187.655 361.416 187.454 360.854 187.178 360.356 186.828 359.858 186.479 359.45 186.028 359.133 185.477 358.814 184.927 358.656 184.227 358.656 183.379 358.656 181.727 359.148 180.498 360.133 179.692 361.119 178.887 362.502 178.484 364.282 178.484 365.617 178.484 366.74 178.611 367.651 178.865 368.562 179.12 369.357 179.396 370.036 179.692L369.336 182.172C368.764 181.896 368.081 181.626 367.286 181.361 366.491 181.096 365.617 180.964 364.664 180.964 363.625 180.964 362.851 181.134 362.343 181.472 361.835 181.811 361.58 182.426 361.58 183.316 361.58 183.677 361.675 183.979 361.866 184.222 362.057 184.466 362.311 184.678 362.628 184.857 362.947 185.038 363.317 185.196 363.742 185.334 364.165 185.473 364.61 185.605 365.077 185.732 365.712 185.901 366.348 186.098 366.984 186.319 367.62 186.542 368.203 186.839 368.732 187.21 369.261 187.581 369.691 188.052 370.019 188.624 370.348 189.196 370.512 189.917 370.512 190.786 370.512 192.355 369.982 193.631 368.922 194.616 367.863 195.602 366.274 196.095 364.155 196.095 362.798 196.095 361.617 195.956 360.611 195.682 359.604 195.406 358.761 195.088 358.084 194.728L358.91 192.185C359.503 192.502 360.266 192.82 361.199 193.139 362.13 193.456 363.074 193.615 364.028 193.615 365.066 193.615 365.919 193.43 366.587 193.059 367.255 192.689 367.588 191.994 367.588 190.977Z" stroke-width="0" fill="#FFFFFF"/><path d="M382.241 178.961 385.07 178.961 385.07 175.592 387.995 174.828 387.995 178.961 393.017 178.961 393.017 181.44 387.995 181.44 387.995 189.959C387.995 191.295 388.164 192.237 388.504 192.788 388.842 193.34 389.426 193.615 390.252 193.615 390.781 193.615 391.263 193.557 391.698 193.44 392.133 193.324 392.625 193.17 393.176 192.98L393.843 195.046C393.165 195.343 392.439 195.591 391.666 195.792 390.892 195.993 390.061 196.095 389.171 196.095 387.687 196.095 386.633 195.691 386.008 194.887 385.383 194.081 385.07 192.768 385.07 190.945L385.07 181.44 382.241 181.44 382.241 178.961Z" stroke-width="0" fill="#FFFFFF"/><path d="M395.942 187.321C395.942 185.943 396.122 184.71 396.482 183.618 396.842 182.526 397.373 181.6 398.072 180.836 398.771 180.073 399.624 179.491 400.63 179.088 401.637 178.686 402.787 178.484 404.08 178.484 405.435 178.484 406.623 178.707 407.64 179.152 408.657 179.597 409.504 180.217 410.183 181.011 410.861 181.806 411.364 182.738 411.693 183.809 412.021 184.879 412.185 186.05 412.185 187.322 412.185 188.678 412 189.896 411.629 190.977 411.258 192.058 410.728 192.98 410.04 193.742 409.351 194.505 408.504 195.088 407.497 195.49 406.49 195.893 405.351 196.095 404.08 196.095 402.681 196.095 401.473 195.872 400.456 195.427 399.439 194.982 398.596 194.367 397.928 193.583 397.261 192.8 396.763 191.872 396.435 190.802 396.106 189.733 395.942 188.571 395.942 187.321ZM399.121 187.321C399.121 188.105 399.21 188.874 399.387 189.626 399.565 190.378 399.853 191.051 400.251 191.645 400.648 192.237 401.161 192.715 401.789 193.074 402.417 193.436 403.19 193.615 404.111 193.615 407.375 193.615 409.007 191.517 409.007 187.321 409.007 186.494 408.918 185.7 408.74 184.937 408.562 184.174 408.28 183.502 407.893 182.918 407.506 182.336 406.999 181.864 406.371 181.504 405.743 181.143 404.99 180.964 404.111 180.964 402.479 180.964 401.239 181.488 400.392 182.537 399.544 183.586 399.121 185.181 399.121 187.321Z" stroke-width="0" fill="#FFFFFF"/><path d="M426.362 174.987C426.362 174.5 426.553 174.061 426.934 173.668 427.316 173.276 427.813 173.08 428.428 173.08 429.043 173.08 429.551 173.276 429.955 173.668 430.356 174.061 430.558 174.5 430.558 174.987 430.558 175.476 430.356 175.904 429.955 176.274 429.552 176.645 429.043 176.831 428.428 176.831 427.813 176.831 427.316 176.645 426.934 176.274 426.553 175.904 426.362 175.476 426.362 174.987ZM426.966 178.961 429.89 178.961 429.89 195.649 426.966 195.649 426.966 178.961Z" stroke-width="0" fill="#FFFFFF"/><path d="M448.073 195.649 448.073 186.431C448.073 184.65 447.787 183.315 447.215 182.426 446.642 181.536 445.625 181.091 444.163 181.091 442.87 181.091 441.794 181.425 440.936 182.092 440.078 182.76 439.479 183.613 439.14 184.65L439.14 195.649 436.215 195.649 436.215 178.961 438.251 178.961 438.823 181.185 439.109 181.185C439.723 180.423 440.523 179.782 441.508 179.262 442.494 178.744 443.675 178.484 445.053 178.484 446.027 178.484 446.885 178.596 447.628 178.817 448.369 179.04 448.989 179.432 449.487 179.994 449.985 180.556 450.361 181.309 450.616 182.251 450.87 183.194 450.997 184.386 450.997 185.827L450.997 195.649 448.073 195.649Z" stroke-width="0" fill="#FFFFFF"/><path d="M468.448 195.649 468.448 186.431C468.448 184.65 468.162 183.315 467.59 182.426 467.017 181.536 466 181.091 464.538 181.091 463.245 181.091 462.169 181.425 461.311 182.092 460.453 182.76 459.854 183.613 459.515 184.65L459.515 195.649 456.59 195.649 456.59 178.961 458.626 178.961 459.198 181.185 459.484 181.185C460.098 180.423 460.898 179.782 461.883 179.262 462.869 178.744 464.05 178.484 465.428 178.484 466.402 178.484 467.26 178.596 468.003 178.817 468.744 179.04 469.364 179.432 469.862 179.994 470.36 180.556 470.736 181.309 470.991 182.251 471.245 183.194 471.372 184.386 471.372 185.827L471.372 195.649 468.448 195.649Z" stroke-width="0" fill="#FFFFFF"/><path d="M476.077 187.321C476.077 185.943 476.257 184.71 476.617 183.618 476.977 182.526 477.507 181.6 478.207 180.836 478.906 180.073 479.758 179.491 480.765 179.088 481.772 178.686 482.921 178.484 484.214 178.484 485.57 178.484 486.757 178.707 487.775 179.152 488.792 179.597 489.639 180.217 490.318 181.011 490.996 181.806 491.499 182.738 491.828 183.809 492.156 184.879 492.32 186.05 492.32 187.322 492.32 188.678 492.134 189.896 491.764 190.977 491.393 192.058 490.863 192.98 490.174 193.742 489.486 194.505 488.638 195.088 487.631 195.49 486.625 195.893 485.486 196.095 484.214 196.095 482.816 196.095 481.608 195.872 480.59 195.427 479.574 194.982 478.731 194.367 478.063 193.583 477.396 192.8 476.898 191.872 476.57 190.802 476.241 189.733 476.077 188.571 476.077 187.321ZM479.255 187.321C479.255 188.105 479.344 188.874 479.522 189.626 479.7 190.378 479.988 191.051 480.385 191.645 480.783 192.237 481.296 192.715 481.923 193.074 482.551 193.436 483.325 193.615 484.246 193.615 487.509 193.615 489.141 191.517 489.141 187.321 489.141 186.494 489.052 185.7 488.875 184.937 488.697 184.174 488.415 183.502 488.028 182.918 487.64 182.336 487.134 181.864 486.505 181.504 485.878 181.143 485.125 180.964 484.246 180.964 482.614 180.964 481.374 181.488 480.527 182.537 479.679 183.586 479.255 185.181 479.255 187.321Z" stroke-width="0" fill="#FFFFFF"/><path d="M501.557 188.561 502.683 191.994 503.732 188.497 507.706 178.961 510.884 178.961 503.096 195.999 501.825 195.999 493.878 178.961 497.247 178.961 501.557 188.561Z" stroke-width="0" fill="#FFFFFF"/><path d="M513.49 180.01C515.397 179.099 517.76 178.643 520.579 178.643 521.85 178.643 522.873 178.807 523.646 179.136 524.42 179.465 525.018 179.883 525.442 180.392 525.866 180.9 526.146 181.467 526.285 182.092 526.423 182.717 526.491 183.337 526.491 183.951 526.491 185.117 526.449 186.288 526.364 187.464 526.279 188.641 526.237 189.917 526.237 191.295 526.237 192.101 526.274 192.879 526.348 193.631 526.422 194.384 526.544 195.077 526.714 195.713L524.584 195.713 523.79 193.17 523.471 193.17C523.238 193.488 522.952 193.811 522.613 194.14 522.274 194.469 521.871 194.76 521.405 195.014 520.939 195.268 520.404 195.48 519.799 195.649 519.196 195.818 518.502 195.903 517.717 195.903 516.933 195.903 516.213 195.792 515.556 195.57 514.899 195.348 514.333 195.035 513.855 194.632 513.378 194.229 513.003 193.737 512.727 193.154 512.452 192.571 512.314 191.92 512.314 191.199 512.314 190.245 512.52 189.419 512.934 188.72 513.347 188.02 513.881 187.448 514.539 187.003 515.196 186.559 515.943 186.229 516.78 186.017 517.617 185.807 518.449 185.7 519.275 185.7 519.932 185.7 520.488 185.711 520.944 185.731 521.4 185.753 521.781 185.779 522.088 185.811 522.395 185.842 522.655 185.875 522.868 185.906 523.079 185.938 523.27 185.965 523.439 185.986 523.482 185.668 523.513 185.392 523.535 185.159 523.556 184.927 523.567 184.63 523.567 184.269 523.567 183.677 523.503 183.178 523.375 182.775 523.248 182.373 523.042 182.05 522.756 181.806 522.47 181.562 522.083 181.388 521.596 181.281 521.108 181.176 520.515 181.122 519.816 181.122 519.413 181.122 518.968 181.154 518.481 181.218 517.993 181.281 517.505 181.372 517.018 181.488 516.531 181.604 516.048 181.748 515.572 181.917 515.095 182.087 514.666 182.266 514.285 182.457L513.49 180.01ZM523.439 188.084C523.271 188.063 523.092 188.031 522.903 187.988 522.714 187.946 522.477 187.915 522.194 187.893 521.91 187.872 521.574 187.85 521.184 187.83 520.795 187.809 520.317 187.798 519.75 187.798 518.447 187.798 517.411 188.031 516.643 188.497 515.876 188.964 515.493 189.758 515.493 190.881 515.493 191.729 515.793 192.365 516.391 192.788 516.99 193.213 517.763 193.424 518.71 193.424 519.403 193.424 520.017 193.334 520.554 193.154 521.09 192.975 521.552 192.752 521.942 192.486 522.331 192.222 522.646 191.925 522.887 191.597 523.13 191.268 523.313 190.945 523.439 190.627L523.439 188.084Z" stroke-width="0" fill="#FFFFFF"/><path d="M530.146 178.961 532.975 178.961 532.975 175.592 535.9 174.828 535.9 178.961 540.923 178.961 540.923 181.44 535.9 181.44 535.9 189.959C535.9 191.295 536.069 192.237 536.409 192.788 536.748 193.34 537.331 193.615 538.157 193.615 538.686 193.615 539.169 193.557 539.603 193.44 540.038 193.324 540.53 193.17 541.082 192.98L541.749 195.046C541.07 195.343 540.344 195.591 539.571 195.792 538.798 195.993 537.966 196.095 537.076 196.095 535.593 196.095 534.538 195.691 533.913 194.887 533.288 194.081 532.975 192.768 532.975 190.945L532.975 181.44 530.146 181.44 530.146 178.961Z" stroke-width="0" fill="#FFFFFF"/><path d="M543.815 187.321C543.815 185.943 543.995 184.71 544.355 183.618 544.715 182.526 545.246 181.6 545.945 180.836 546.644 180.073 547.497 179.491 548.503 179.088 549.51 178.686 550.66 178.484 551.953 178.484 553.308 178.484 554.496 178.707 555.513 179.152 556.53 179.597 557.378 180.217 558.056 181.011 558.734 181.806 559.237 182.738 559.566 183.809 559.894 184.879 560.058 186.05 560.058 187.322 560.058 188.678 559.873 189.896 559.503 190.977 559.131 192.058 558.601 192.98 557.913 193.742 557.224 194.505 556.377 195.088 555.37 195.49 554.363 195.893 553.224 196.095 551.953 196.095 550.554 196.095 549.346 195.872 548.329 195.427 547.312 194.982 546.469 194.367 545.801 193.583 545.134 192.8 544.636 191.872 544.308 190.802 543.979 189.733 543.815 188.571 543.815 187.321ZM546.994 187.321C546.994 188.105 547.083 188.874 547.26 189.626 547.438 190.378 547.726 191.051 548.124 191.645 548.521 192.237 549.034 192.715 549.662 193.074 550.29 193.436 551.063 193.615 551.984 193.615 555.248 193.615 556.88 191.517 556.88 187.321 556.88 186.494 556.791 185.7 556.613 184.937 556.435 184.174 556.153 183.502 555.766 182.918 555.379 182.336 554.872 181.864 554.244 181.504 553.616 181.143 552.863 180.964 551.984 180.964 550.352 180.964 549.112 181.488 548.265 182.537 547.417 183.586 546.994 185.181 546.994 187.321Z" stroke-width="0" fill="#FFFFFF"/><path d="M573.473 181.727C573.113 181.637 572.763 181.556 572.424 181.484 572.086 181.413 571.767 181.377 571.471 181.377 570.347 181.377 569.473 181.662 568.848 182.231 568.223 182.801 567.837 183.518 567.688 184.383L567.688 195.649 564.763 195.649 564.763 178.961 566.799 178.961 567.371 181.186 567.657 181.186C568.143 180.359 568.711 179.719 569.357 179.263 570.004 178.807 570.814 178.579 571.789 178.579 572.086 178.579 572.435 178.606 572.838 178.659 573.24 178.712 573.643 178.802 574.046 178.929L573.473 181.727Z" stroke-width="0" fill="#FFFFFF"/><path d="M585.265 190.977C585.265 190.553 585.165 190.198 584.964 189.912 584.762 189.626 584.492 189.382 584.153 189.181 583.814 188.98 583.422 188.805 582.977 188.656 582.532 188.508 582.065 188.359 581.578 188.211 580.964 188.042 580.343 187.856 579.718 187.655 579.093 187.454 578.532 187.178 578.034 186.828 577.536 186.479 577.128 186.028 576.81 185.477 576.492 184.927 576.334 184.227 576.334 183.379 576.334 181.727 576.826 180.498 577.811 179.692 578.796 178.887 580.179 178.484 581.959 178.484 583.294 178.484 584.417 178.611 585.329 178.865 586.24 179.12 587.035 179.396 587.713 179.692L587.014 182.172C586.442 181.896 585.758 181.626 584.963 181.361 584.169 181.096 583.294 180.964 582.341 180.964 581.302 180.964 580.529 181.134 580.021 181.472 579.512 181.811 579.257 182.426 579.257 183.316 579.257 183.677 579.353 183.979 579.543 184.222 579.735 184.466 579.989 184.678 580.306 184.857 580.625 185.038 580.995 185.196 581.419 185.334 581.843 185.473 582.288 185.605 582.754 185.732 583.39 185.901 584.026 186.098 584.662 186.319 585.297 186.542 585.88 186.839 586.41 187.21 586.939 187.581 587.369 188.052 587.697 188.624 588.026 189.196 588.19 189.917 588.19 190.786 588.19 192.355 587.66 193.631 586.6 194.616 585.541 195.602 583.952 196.095 581.833 196.095 580.476 196.095 579.294 195.956 578.289 195.682 577.282 195.406 576.439 195.088 575.761 194.728L576.588 192.185C577.18 192.502 577.944 192.82 578.877 193.139 579.808 193.456 580.752 193.615 581.706 193.615 582.744 193.615 583.596 193.43 584.264 193.059 584.932 192.689 585.265 191.994 585.265 190.977Z" stroke-width="0" fill="#FFFFFF"/></svg>