<svg viewBox="0 0 2362.75 888.289" xmlns="http://www.w3.org/2000/svg" xmlns:xlink="http://www.w3.org/1999/xlink" id="uuid-c114216d-43ab-4da8-8788-33a524531891" overflow="hidden"><defs><clipPath id="uuid-b7d53057-5981-4993-b7c4-1c6df638f1fd"><path d="M498.579 211.296C481.133 217.71 481.152 215.779 462.974 219.406 443.241 223.343 423.373 226.555 403.421 229.042 363.515 234.018 323.272 236.096 283.086 235.286 246.363 234.545 209.685 231.392 173.349 225.831 154.978 223.019 136.694 219.592 118.538 215.549 109.258 213.484 104.783 211.262 95.5756 208.874 87.9979 206.91 76.9116 202.541 73.6583 205.078 70.3106 207.688 61.9575 217.888 60.3024 221.819 55.7555 232.619 51.7177 241.247 49.8576 252.85 48.8028 259.428 48.2465 283.278 48.0597 296.692 46.9919 373.362 48.0055 450.04 49.23 526.701 50.3972 599.779 45.5333 676.507 55.7144 748.925 73.4282 874.89 245.883 877.438 341.16 874.385 397.973 872.564 497.76 829.226 529.808 776.419 558.008 729.953 553.025 681.727 552.922 629.527 552.713 542.02 552.828 454.517 552.643 367.01 552.597 344.93 552.55 322.85 552.504 300.77 552.493 295.551 552.482 290.331 552.337 285.114 552.212 280.58 552.669 276.033 552.231 271.556 551.278 261.828 548.042 252.325 542.823 244.057 537.473 235.583 530.197 228.555 522.549 222.166 515.94 216.645 508.201 207.757 498.579 211.295Z" stroke-width="0" fill="#E2E2E2"/></clipPath><clipPath id="uuid-d3272c72-71ab-41ce-bbee-54f4ad941cb8"><path d="M8.0121 249.444C7.9518 253.013 41.9454 264.357 46.0088 265.865 58.4233 270.475 71.0469 273.607 83.7838 277.116 110.611 284.506 137.784 290.529 165.171 295.187 219.951 304.504 275.582 308.357 331.066 306.77 376.597 305.468 422.035 300.503 466.826 291.883 509.498 283.672 556.609 274.338 596.534 256.469 598.234 404.517 599.933 552.566 601.633 700.614 528.874 750.675 462.058 773.615 418.084 784.916 252.744 827.403 120.301 779.862 92.5028 769.304 52.3941 754.071 20.9817 736.393-0.0001 723.25 2.6706 565.315 5.3413 407.379 8.012 249.444Z" stroke-width="0" fill="#5F72C4"/></clipPath></defs><path d="M531.661 197.713C513.109 204.3 492.594 207.005 473.262 210.73 452.277 214.772 431.148 218.071 409.931 220.625 367.492 225.735 324.698 227.87 281.961 227.037 242.908 226.277 203.903 223.038 165.262 217.327 145.725 214.44 126.282 210.92 106.974 206.77 97.1051 204.648 92.3464 202.366 82.5543 199.915 74.4958 197.898 62.7062 193.411 59.2465 196.016 55.6865 198.696 46.8033 209.171 45.0433 213.208 40.2078 224.299 35.9139 233.158 33.9357 245.074 32.814 251.83 32.2224 276.321 32.0237 290.096 30.8882 368.83 31.9662 447.572 33.2683 526.297 34.5095 601.341 29.3372 680.135 40.1641 754.502 59.0018 883.858 241.288 892.263 342.528 887.247 417.59 883.529 504.62 862.164 547.456 794.02 577.45 746.307 569.027 685.496 568.917 631.891 568.694 542.028 568.816 452.17 568.62 362.307 568.571 339.633 568.521 316.958 568.472 294.284 568.437 278.113 568.38 261.761 564.532 246.055 562.017 235.792 557.764 225.772 551.307 217.352 548.13 213.208 544.015 209.944 540.968 205.755 538.844 202.835 536.719 195.917 531.661 197.713Z" fill="#A3B1B1"/><path d="M498.579 211.296C481.133 217.71 481.152 215.779 462.974 219.406 443.241 223.343 423.373 226.555 403.421 229.042 363.515 234.018 323.272 236.096 283.086 235.286 246.363 234.545 209.685 231.392 173.349 225.831 154.978 223.019 136.694 219.592 118.538 215.549 109.258 213.484 104.783 211.262 95.5756 208.874 87.9979 206.91 76.9116 202.541 73.6583 205.078 70.3106 207.688 61.9575 217.888 60.3024 221.819 55.7555 232.619 51.7177 241.247 49.8576 252.85 48.8028 259.428 48.2465 283.278 48.0597 296.692 46.9919 373.362 48.0055 450.04 49.23 526.701 50.3972 599.779 45.5333 676.507 55.7144 748.925 73.4282 874.89 245.883 877.438 341.16 874.385 397.973 872.564 497.76 829.226 529.808 776.419 558.008 729.953 553.025 681.727 552.922 629.527 552.713 542.02 552.828 454.517 552.643 367.01 552.597 344.93 552.55 322.85 552.504 300.77 552.493 295.551 552.482 290.331 552.337 285.114 552.212 280.58 552.669 276.033 552.231 271.556 551.278 261.828 548.042 252.325 542.823 244.057 537.473 235.583 530.197 228.555 522.549 222.166 515.94 216.645 508.201 207.757 498.579 211.295Z" fill="#E2E2E2"/><g clip-path="url(#uuid-b7d53057-5981-4993-b7c4-1c6df638f1fd)"><path d="M8.0121 249.444C7.9518 253.013 41.9454 264.357 46.0088 265.865 58.4233 270.475 71.0469 273.607 83.7838 277.116 110.611 284.506 137.784 290.529 165.171 295.187 219.951 304.504 275.582 308.357 331.066 306.77 376.597 305.468 422.035 300.503 466.826 291.883 509.498 283.672 556.609 274.338 596.534 256.469 598.234 404.517 599.933 552.566 601.633 700.614 528.874 750.675 462.058 773.615 418.084 784.916 252.744 827.403 120.301 779.862 92.5028 769.304 52.3941 754.071 20.9817 736.393-0.0001 723.25 2.6706 565.315 5.3413 407.379 8.012 249.444Z" fill="#5F72C4"/><g clip-path="url(#uuid-d3272c72-71ab-41ce-bbee-54f4ad941cb8)"><path d="M428.099 268.072C449.014 320.061 470.586 395.937 467.431 487.675 465.502 543.744 462.109 642.416 393.137 733.5 350.363 789.987 289.187 805.14 257.397 821.214 375.758 804.097 504.214 803.059 622.574 785.943 617.475 606.035 612.377 426.128 607.278 246.221 547.552 253.505 487.825 260.788 428.099 268.072Z" stroke-width="0" fill="#3C519E"/></g><path d="M100.654 227.253C69.0802 288.667 82.8727 365.962 83.8707 432.414 84.7153 488.649 85.5599 544.883 86.4044 601.118 86.7713 625.549 86.1299 649.573 84.9157 673.659 84.3072 685.743 84.755 711.225 95.4705 719.363 112.85 732.563 121.463 693.99 123.51 683.044 135.332 619.819 141.413 555.527 141.721 491.208 142.029 426.839 130.418 363.88 128.922 299.873 128.277 272.291 129.972 255.72 149.82 235.991 156.915 229.13 163.976 224.768 169.126 222.084 151.036 216.158 132.947 210.232 114.858 204.307 111.461 208.928 106.024 216.809 100.654 227.253Z" stroke-width="0" fill="#C3CADD" opacity="0.5"/><path d="M92.4219 750.926C83.6021 766.244 93.3191 783.935 96.7921 790.258 99.881 795.882 107.956 810.584 117.915 809.924 129.008 809.189 137.251 789.736 137.217 774.234 137.183 759.515 129.665 738.41 115.366 736.723 105.757 735.589 96.6176 743.639 92.4219 750.926Z" stroke-width="0" fill="#C3CADD" opacity="0.5"/></g><path d="M57.0148 96.008C59.6716 105.981 64.9374 128.781 65.2894 160.237 65.5019 179.236 64.9081 186.414 63.4726 196.335 141.191 213.173 190.299 232.575 291.995 235.241 386.253 237.711 479.668 237.531 536.221 199.537 534.113 193.277 529.745 167.312 528.339 149.371 526.319 123.603 527.635 103.634 528.306 92.3892 484.412 117.148 432.968 137.07 298.085 134.27 170.113 131.614 137.664 144.532 57.0148 96.0078Z" stroke-width="0" fill="#603617"/><path d="M548.131 95.4239C548.202 94.903 548.247 94.3807 548.247 93.8561 548.247 93.5176 548.216 93.1809 548.187 92.8439 548.407 80.3756 544.891 67.7049 539.314 56.638 537.87 53.771 534.58 47.9647 534.51 47.8577 522.145 20.9727 420.257 0 296.394 0 172.437 0 70.4862 21.0042 58.2469 47.9187 58.1921 48.0054 58.1168 48.0905 58.0672 48.1775 56.5039 50.9783 54.93 53.7711 53.4853 56.6381 47.9308 67.6613 44.4199 80.2758 44.6096 92.6965 44.5707 93.0823 44.5404 93.4685 44.5404 93.8562 44.5404 94.4064 44.5925 94.954 44.6705 95.5002 44.6723 95.5287 44.6705 95.5574 44.6723 95.5859 44.6768 95.588 44.6825 95.5904 44.687 95.5925 49.014 124.262 160.042 147.222 296.394 147.222 432.746 147.222 543.758 124.265 548.1 95.5983 548.108 95.5944 548.119 95.5897 548.128 95.5858 548.131 95.5319 548.128 95.4778 548.131 95.4239Z" stroke-width="0" fill="#854515"/><ellipse cx="296.394" cy="53.3656" rx="239.379" ry="53.3656" stroke-width="0" fill="#A35D20"/><path d="M50.5083 180.217C51.8431 178.885 53.4795 177.827 55.2338 177.153 63.671 173.911 75.2386 177.753 83.3739 180.456 93.0311 183.665 102.316 187.936 112.088 190.81 167.097 206.991 225.43 213.294 282.607 215.276 340.753 217.29 399.317 213.974 456.631 203.658 481.203 199.235 508.726 195.8 530.529 183.432 538.704 178.795 550.156 184.469 549.213 194.495 548.521 201.859 541.376 204.273 535.903 207.533 528.212 212.114 519.813 215.694 511.431 218.794 494.599 225.02 476.99 228.885 459.302 231.732 431.095 236.273 402.664 239.417 374.148 241.171 317.112 244.677 259.737 242.621 203.098 235.049 176.656 231.514 150.202 227.689 124.206 221.609 111.078 218.538 98.0728 214.895 85.359 210.397 74.3907 206.517 60.2325 202.514 51.0702 195.113 48.5121 193.046 46.8372 190.116 47.2174 186.72 47.4951 184.239 48.7356 181.986 50.5083 180.217Z" stroke-width="0" fill="#854515"/><path d="M46.3742 132.612C47.709 131.279 49.3454 130.222 51.0997 129.548 59.5369 126.305 71.1045 130.147 79.2398 132.85 88.897 136.059 98.1822 140.33 107.954 143.204 162.963 159.386 221.296 165.689 278.473 167.67 336.619 169.685 395.183 166.368 452.497 156.052 477.069 151.629 504.592 148.194 526.394 135.827 534.57 131.189 546.021 136.863 545.079 146.889 544.386 154.253 537.242 156.667 531.769 159.927 524.078 164.508 515.679 168.088 507.297 171.188 490.464 177.415 472.856 181.279 455.168 184.126 426.961 188.667 398.53 191.811 370.013 193.565 312.978 197.072 255.602 195.015 198.963 187.443 172.522 183.908 146.068 180.083 120.072 174.003 106.944 170.933 93.9387 167.289 81.2249 162.791 70.2566 158.911 56.0984 154.909 46.9361 147.507 44.378 145.44 42.7031 142.51 43.0833 139.114 43.361 136.634 44.6015 134.381 46.3742 132.612Z" stroke-width="0" fill="#854515"/></svg>